# WaveFront *.obj file (generated by Cinema 4D)

mtllib ./brick_1x1_Proxy_Pieces_V3.mtl

v 1.193756 2.753951 0.424730
v 1.193756 2.753951 10.309608
v 6.051231 3.953951 0.424730
v 6.051231 3.953951 10.309608
v 6.051231 2.753951 5.365397
v -3.833647 3.953951 10.309608
v -3.833647 3.953951 0.424730
v 1.193756 2.753951 5.365397
v 4.074255 3.953951 5.367169
v 2.591524 3.953951 2.799003
v -0.373940 3.953951 2.799003
v -1.856671 3.953951 5.367169
v -0.373940 3.953951 7.935335
v 2.591524 3.953951 7.935335
v 4.074255 6.128624 5.367169
v 2.591524 6.128624 2.799003
v -0.373940 6.128624 2.799003
v -1.856671 6.128624 5.367169
v -0.373940 6.128624 7.935335
v 2.591524 6.128624 7.935335
v 1.108792 6.128624 5.367169
v 1.193756 3.953951 10.309608
v 1.193756 3.953951 0.424730
v -3.833647 3.953951 5.365397
v 6.051231 3.953951 5.365397
v -3.833647 2.753951 10.309608
v 6.051231 2.753951 10.309608
v 6.051231 2.753951 0.424730
v -3.833647 2.753951 0.424730
v -3.833647 2.753951 5.365397
# 30 vertices

vn 0.000000 0.000000 0.000000
vn 0.000000 -1.000000 0.000000
vn 0.866000 0.000000 -0.500000
vn 0.000000 0.000000 -1.000000
vn -0.866000 0.000000 -0.500000
vn -0.866000 0.000000 0.500000
vn 0.000000 0.000000 1.000000
vn 0.866000 0.000000 0.500000
vn 0.000000 1.000000 0.000000
# 9 normals

o Center_Fill
usemtl default
f 28//1 1//1 29//1
f 8//2 1//2 28//2 5//2
f 8//2 5//2 27//2 2//2
f 30//2 29//2 1//2 8//2
f 30//2 8//2 2//2 26//2
f 10//3 16//3 15//3 9//3
f 11//4 17//4 16//4 10//4
f 12//5 18//5 17//5 11//5
f 13//6 19//6 18//6 12//6
f 14//7 20//7 19//7 13//7
f 9//8 15//8 20//8 14//8
f 16//9 21//9 15//9
f 17//9 21//9 16//9
f 18//9 21//9 17//9
f 19//9 21//9 18//9
f 20//9 21//9 19//9
f 15//9 21//9 20//9
f 22//9 4//9 14//9
f 14//9 4//9 25//9
f 25//9 9//9 14//9
f 13//9 6//9 22//9
f 24//9 6//9 13//9
f 13//9 12//9 24//9
f 13//9 22//9 14//9
f 10//9 3//9 23//9
f 25//9 3//9 10//9
f 10//9 9//9 25//9
f 23//9 7//9 11//9
f 11//9 7//9 24//9
f 24//9 12//9 11//9
f 10//9 23//9 11//9

v -2.833647 2.753951 -6.057077
v -2.833647 2.753951 -10.997744
v -2.833530 -3.953951 -10.996472
v -2.833530 -3.953951 -6.057123
v -3.833530 -3.953951 -10.997790
v -3.833530 -3.953951 -6.057123
v -3.833530 -3.953951 -1.112912
v -2.833530 -3.953951 -1.111594
v -3.833647 3.953951 -6.057077
v -3.833647 3.953951 -1.112866
v -3.833647 3.953951 -10.997744
v -2.833647 2.753951 -1.112866
v 6.051231 2.753951 -6.057077
v 6.051231 2.753951 -10.997744
v 1.193756 2.753951 -10.997744
v 1.193756 2.753951 -6.057077
v 1.193756 2.753951 -1.112866
v 6.051231 2.753951 -1.112866
v 4.074255 3.953951 -6.055305
v 4.074255 6.128624 -6.055305
v 2.591524 6.128624 -8.623471
v 2.591524 3.953951 -8.623471
v -0.373940 6.128624 -8.623471
v -0.373940 3.953951 -8.623471
v -1.856671 6.128624 -6.055305
v -1.856671 3.953951 -6.055305
v -0.373940 6.128624 -3.487139
v -0.373940 3.953951 -3.487139
v 2.591524 6.128624 -3.487139
v 2.591524 3.953951 -3.487139
v 1.108792 6.128624 -6.055305
v 6.051231 3.953951 -1.112866
v 1.193756 3.953951 -1.112866
v 6.051231 3.953951 -6.057077
v 1.193756 3.953951 -10.997744
v 6.051231 3.953951 -10.997744
# 36 vertices

vn 1.000000 0.000000 0.000000
vn -1.000000 0.000000 0.000000
# 2 normals

o Edge
usemtl default_1
f 34//10 33//10 32//10 31//10
f 34//2 36//2 35//2 33//2
f 36//2 34//2 38//2 37//2
f 37//11 40//11 39//11 36//11
f 41//11 35//11 36//11 39//11
f 42//10 38//10 34//10 31//10
f 46//2 45//2 44//2 43//2
f 46//2 43//2 48//2 47//2
f 31//2 32//2 45//2 46//2
f 31//2 46//2 47//2 42//2
f 52//3 51//3 50//3 49//3
f 54//4 53//4 51//4 52//4
f 56//5 55//5 53//5 54//5
f 58//6 57//6 55//6 56//6
f 60//7 59//7 57//7 58//7
f 49//8 50//8 59//8 60//8
f 51//9 61//9 50//9
f 53//9 61//9 51//9
f 55//9 61//9 53//9
f 57//9 61//9 55//9
f 59//9 61//9 57//9
f 50//9 61//9 59//9
f 63//9 62//9 60//9
f 60//9 62//9 64//9
f 64//9 49//9 60//9
f 58//9 40//9 63//9
f 39//9 40//9 58//9
f 58//9 56//9 39//9
f 58//9 63//9 60//9
f 52//9 66//9 65//9
f 64//9 66//9 52//9
f 52//9 49//9 64//9
f 65//9 41//9 54//9
f 54//9 41//9 39//9
f 39//9 56//9 54//9
f 52//9 65//9 54//9

v 5.006977 -3.953951 23.675605
v 5.006977 -3.953951 28.616272
v 6.006977 -3.953951 28.616272
v 6.006977 -3.953951 23.675605
v -2.877901 -3.953951 23.675605
v -3.877901 -3.953951 23.675605
v -3.877901 -3.953951 28.616272
v -2.877901 -3.953951 28.616272
v -3.877901 -3.953951 33.560483
v -2.877901 -3.953951 33.560483
v 5.006977 -3.953951 33.560483
v 6.006977 -3.953951 33.560483
v 5.006977 2.753951 23.675605
v 5.006977 2.753951 28.616272
v 6.006977 3.953951 33.560483
v 6.006977 3.953951 28.616272
v 6.006977 3.953951 23.675605
v 5.006977 2.753951 33.560483
v -3.877901 3.953951 28.616272
v -3.877901 3.953951 33.560483
v -2.877901 2.753951 28.616272
v -2.877901 2.753951 33.560483
v -3.877901 3.953951 23.675605
v -2.877901 2.753951 23.675605
v 1.149502 2.753951 23.675605
v 1.149502 2.753951 28.616272
v 1.149502 2.753951 33.560483
v 4.030001 3.953951 28.618044
v 4.030001 6.128624 28.618044
v 2.547270 6.128624 26.049878
v 2.547270 3.953951 26.049878
v -0.418194 6.128624 26.049878
v -0.418194 3.953951 26.049878
v -1.900925 6.128624 28.618044
v -1.900925 3.953951 28.618044
v -0.418194 6.128624 31.186210
v -0.418194 3.953951 31.186210
v 2.547270 6.128624 31.186210
v 2.547270 3.953951 31.186210
v 1.064538 6.128624 28.618044
v 1.149502 3.953951 33.560483
v 1.149502 3.953951 23.675605
# 42 vertices

# 0 normal

o Tunnel
usemtl default_1
f 70//2 69//2 68//2 67//2
f 74//2 73//2 72//2 71//2
f 73//2 74//2 76//2 75//2
f 78//2 77//2 68//2 69//2
f 80//11 79//11 67//11 68//11
f 69//10 82//10 81//10 78//10
f 70//10 83//10 82//10 69//10
f 68//11 77//11 84//11 80//11
f 75//11 86//11 85//11 73//11
f 88//10 76//10 74//10 87//10
f 89//11 72//11 73//11 85//11
f 74//10 71//10 90//10 87//10
f 92//2 91//2 79//2 80//2
f 92//2 80//2 84//2 93//2
f 87//2 90//2 91//2 92//2
f 87//2 92//2 93//2 88//2
f 97//3 96//3 95//3 94//3
f 99//4 98//4 96//4 97//4
f 101//5 100//5 98//5 99//5
f 103//6 102//6 100//6 101//6
f 105//7 104//7 102//7 103//7
f 94//8 95//8 104//8 105//8
f 96//9 106//9 95//9
f 98//9 106//9 96//9
f 100//9 106//9 98//9
f 102//9 106//9 100//9
f 104//9 106//9 102//9
f 95//9 106//9 104//9
f 107//9 81//9 105//9
f 105//9 81//9 82//9
f 82//9 94//9 105//9
f 103//9 86//9 107//9
f 85//9 86//9 103//9
f 103//9 101//9 85//9
f 103//9 107//9 105//9
f 97//9 83//9 108//9
f 82//9 83//9 97//9
f 97//9 94//9 82//9
f 108//9 89//9 99//9
f 99//9 89//9 85//9
f 85//9 101//9 99//9
f 97//9 108//9 99//9

v 6.006977 -3.953951 17.690961
v 5.655444 -3.953951 17.690961
v 5.006977 -3.953951 17.690961
v 5.006977 -3.953951 22.548436
v 6.006977 -3.953951 22.548436
v 5.006977 -3.953951 13.663558
v 6.006977 -3.953951 12.663558
v 1.066310 -3.953951 12.663558
v 1.066310 -3.953951 13.663558
v -3.877901 -3.953951 12.663558
v -3.877901 -3.953951 17.690961
v -2.877901 -3.953951 17.690961
v -2.877901 -3.953951 13.663558
v -2.877901 -3.953951 22.548436
v -3.877901 -3.953951 22.548436
v -3.877901 3.953951 17.690961
v -3.877901 3.953951 22.548436
v -2.877901 2.753951 17.690961
v -2.877901 2.753951 13.663558
v 1.066310 2.753951 13.663558
v 5.006977 2.753951 13.663558
v 6.006977 3.953951 22.548436
v 6.006977 3.953951 17.690961
v 6.006977 3.953951 12.663558
v 1.066310 3.953951 12.663558
v -3.877901 3.953951 12.663558
v -2.877901 2.753951 22.548436
v 5.006977 2.753951 17.690961
v 5.006977 2.753951 22.548436
v 1.066310 2.753951 22.548436
v 1.066310 2.753951 17.690961
v 1.064538 3.953951 20.571460
v 1.064538 6.128624 20.571460
v 3.632704 6.128624 19.088729
v 3.632704 3.953951 19.088729
v 3.632704 6.128624 16.123265
v 3.632704 3.953951 16.123265
v 1.064538 6.128624 14.640534
v 1.064538 3.953951 14.640534
v -1.503628 6.128624 16.123265
v -1.503628 3.953951 16.123265
v -1.503628 6.128624 19.088729
v -1.503628 3.953951 19.088729
v 1.064538 6.128624 17.605997
v 1.066310 3.953951 22.548436
# 45 vertices

vn -1.000000 0.000000 0.000000
vn 1.000000 0.000000 -0.000000
vn 0.000000 0.000000 1.000000
vn -0.000000 0.000000 -1.000000
vn 0.500000 0.000000 0.866000
vn 0.500000 0.000000 -0.866000
vn -0.500000 0.000000 -0.866000
vn -0.500000 0.000000 0.866000
# 8 normals

o Endcap
usemtl default_1
f 123//2 119//2 120//2 122//2
f 119//12 123//12 125//12 124//12
f 127//13 126//13 120//13 121//13
f 117//14 114//14 129//14 128//14
f 109//13 131//13 130//13 113//13
f 115//13 132//13 131//13 109//13
f 127//14 121//14 117//14 128//14
f 132//15 115//15 116//15 133//15
f 134//12 118//12 119//12 124//12
f 118//15 134//15 133//15 116//15
f 126//13 135//13 122//13 120//13
f 129//12 114//12 111//12 136//12
f 111//12 112//12 137//12 136//12
f 137//1 136//1 129//1
f 139//2 136//2 137//2 138//2
f 139//2 138//2 135//2 126//2
f 128//2 129//2 136//2 139//2
f 128//2 139//2 126//2 127//2
f 143//16 142//16 141//16 140//16
f 145//13 144//13 142//13 143//13
f 147//17 146//17 144//17 145//17
f 149//18 148//18 146//18 147//18
f 151//12 150//12 148//12 149//12
f 140//19 141//19 150//19 151//19
f 142//9 152//9 141//9
f 144//9 152//9 142//9
f 146//9 152//9 144//9
f 148//9 152//9 146//9
f 150//9 152//9 148//9
f 141//9 152//9 150//9
f 124//9 125//9 151//9
f 151//9 125//9 153//9
f 153//9 140//9 151//9
f 149//9 134//9 124//9
f 133//9 134//9 149//9
f 149//9 147//9 133//9
f 149//9 124//9 151//9
f 143//9 130//9 131//9
f 153//9 130//9 143//9
f 143//9 140//9 153//9
f 131//9 132//9 145//9
f 145//9 132//9 133//9
f 133//9 147//9 145//9
f 143//9 131//9 145//9
f 113//2 112//2 111//2 110//2 109//2
f 117//2 116//2 115//2 109//2 110//2 111//2 114//2
f 116//2 117//2 121//2 120//2 119//2 118//2

v 1.108792 -3.953951 -23.042621
v 1.108792 -3.953951 -22.691088
v 1.108792 -3.953951 -22.042621
v 5.966267 -3.953951 -22.042621
v 5.966267 -3.953951 -23.042621
v -2.918611 -3.953951 -22.042621
v -3.918611 -3.953951 -23.042621
v -3.918611 -3.953951 -18.101954
v -2.918611 -3.953951 -18.101954
v -3.918611 -3.953951 -13.157743
v -2.918611 -3.953951 -13.157743
v 1.108792 2.753951 -22.042621
v -2.918611 2.753951 -22.042621
v -3.918611 3.953951 -18.101954
v -3.918611 3.953951 -13.157743
v -2.918611 2.753951 -18.101954
v 5.966267 2.753951 -22.042621
v 5.966267 3.953951 -23.042621
v 1.108792 3.953951 -23.042621
v -3.918611 3.953951 -23.042621
v -2.918611 2.753951 -13.157743
v 5.966267 2.753951 -18.101954
v 1.108792 2.753951 -18.101954
v 1.108792 2.753951 -13.157743
v 5.966267 2.753951 -13.157743
v 3.989291 3.953951 -18.100182
v 3.989291 6.128624 -18.100182
v 2.506560 6.128624 -20.668348
v 2.506560 3.953951 -20.668348
v -0.458904 6.128624 -20.668348
v -0.458904 3.953951 -20.668348
v -1.941635 6.128624 -18.100182
v -1.941635 3.953951 -18.100182
v -0.458904 6.128624 -15.532016
v -0.458904 3.953951 -15.532016
v 2.506560 6.128624 -15.532016
v 2.506560 3.953951 -15.532016
v 1.023828 6.128624 -18.100182
v 5.966267 3.953951 -13.157743
v 1.108792 3.953951 -13.157743
v 5.966267 3.953951 -18.101954
# 41 vertices

# 0 normal

o Corner
usemtl default_1
f 161//2 162//2 164//2 163//2
f 166//7 159//7 156//7 165//7
f 163//11 168//11 167//11 161//11
f 162//10 159//10 166//10 169//10
f 156//7 157//7 170//7 165//7
f 154//4 172//4 171//4 158//4
f 160//4 173//4 172//4 154//4
f 174//10 164//10 162//10 169//10
f 173//11 160//11 161//11 167//11
f 170//1 165//1 166//1
f 176//2 165//2 170//2 175//2
f 176//2 175//2 178//2 177//2
f 169//2 166//2 165//2 176//2
f 169//2 176//2 177//2 174//2
f 182//3 181//3 180//3 179//3
f 184//4 183//4 181//4 182//4
f 186//5 185//5 183//5 184//5
f 188//6 187//6 185//6 186//6
f 190//7 189//7 187//7 188//7
f 179//8 180//8 189//8 190//8
f 181//9 191//9 180//9
f 183//9 191//9 181//9
f 185//9 191//9 183//9
f 187//9 191//9 185//9
f 189//9 191//9 187//9
f 180//9 191//9 189//9
f 193//9 192//9 190//9
f 190//9 192//9 194//9
f 194//9 179//9 190//9
f 188//9 168//9 193//9
f 167//9 168//9 188//9
f 188//9 186//9 167//9
f 188//9 193//9 190//9
f 182//9 171//9 172//9
f 194//9 171//9 182//9
f 182//9 179//9 194//9
f 172//9 173//9 184//9
f 184//9 173//9 167//9
f 167//9 186//9 184//9
f 182//9 172//9 184//9
f 158//2 157//2 156//2 155//2 154//2
f 162//2 161//2 160//2 154//2 155//2 156//2 159//2

